# xmcd
# 
# Track frame offsets:
#     150
#     23401
#     49985
#     86959
#     122509
#     150931
#     176382
#     193508
#     223273
#     258187
# 
# Disc length: 3976
# 
# Revision: 1
# Processed by: cddbd v1.5.2PL0 Copyright (c) Steve Scherf et al.
# Submitted via: BonkEnc v1.0.6
# 
DISCID=7b0f860a
DTITLE=Denny Zeitlin - As Long As There's Music
DYEAR=1997
DGENRE=Jazz
TTITLE0=As Long As there's Music
TTITLE1=They Can't Take That Away From Me
TTITLE2=For Heaven's Sake
TTITLE3=There and Back
TTITLE4=I'm All Smiles
TTITLE5=Cousin Mary
TTITLE6=Triste
TTITLE7=Canyon
TTITLE8=I Fall in Love Too Easily
TTITLE9=The Man I Love
EXTD=
EXTT0=
EXTT1=
EXTT2=
EXTT3=
EXTT4=
EXTT5=
EXTT6=
EXTT7=
EXTT8=
EXTT9=
PLAYORDER=
